<svg xmlns="http://www.w3.org/2000/svg" xml:space="preserve" viewBox="0 0 24 24" id="rock">
  <path fill="#FCD2BF" d="M18.25 3a1.75 1.75 0 0 0-1.75 1.75V10l-4.036-1.794a2.395 2.395 0 0 0-2.665.495L9.5 9V1.75a1.75 1.75 0 0 0-3.5 0v10.538l-.682.682A4.503 4.503 0 0 0 4 16.153v1.778c0 1.68.658 3.326 1.918 4.437A6.513 6.513 0 0 0 10.22 24h5.28a4.5 4.5 0 0 0 4.5-4.5V4.75A1.75 1.75 0 0 0 18.25 3z"></path>
  <path fill="#FFF" d="m16.5 10-4.036-1.794a2.395 2.395 0 0 0-2.665.495L9.5 9v.25l.299-.299a2.394 2.394 0 0 1 2.665-.495L16.5 10.25V10z" opacity=".2"></path>
  <path d="M15.5 23.75h-5.28a6.512 6.512 0 0 1-4.23-1.57A5.69 5.69 0 0 1 4 17.854v.25a5.69 5.69 0 0 0 1.99 4.326A6.512 6.512 0 0 0 10.22 24h5.28a4.5 4.5 0 0 0 4.5-4.5v-.25a4.5 4.5 0 0 1-4.5 4.5z" opacity=".05"></path>
  <path fill="#FFF" d="M7.75 0A1.75 1.75 0 0 0 6 1.75V2a1.75 1.75 0 0 1 3.5 0v-.25A1.75 1.75 0 0 0 7.75 0zM18.25 3a1.75 1.75 0 0 0-1.75 1.75V5A1.75 1.75 0 0 1 20 5v-.25A1.75 1.75 0 0 0 18.25 3z" opacity=".2"></path>
  <path d="M6 12.293s-.617.608-.814.82c-.038.04-.146.166-.146.166l.71 4.596a.125.125 0 0 0 .25 0v-5.582z" opacity=".1"></path>
  <linearGradient id="a" x1="2.728" x2="21.558" y1="8.378" y2="17.158" gradientUnits="userSpaceOnUse">
    <stop offset="0" stop-color="#FFF" stop-opacity=".2"></stop>
    <stop offset="1" stop-color="#FFF" stop-opacity="0"></stop>
  </linearGradient>
  <path fill="url(#a)" d="M18.25 3a1.75 1.75 0 0 0-1.75 1.75V10l-4.036-1.794a2.395 2.395 0 0 0-2.665.495L9.5 9V1.75a1.75 1.75 0 0 0-3.5 0v10.538l-.682.682A4.503 4.503 0 0 0 4 16.153v1.778c0 1.68.658 3.326 1.918 4.437A6.513 6.513 0 0 0 10.22 24h5.28a4.5 4.5 0 0 0 4.5-4.5V4.75A1.75 1.75 0 0 0 18.25 3z"></path>
</svg>
