<svg xmlns="http://www.w3.org/2000/svg" width="32" height="32" id="paper">
  <path fill="#f7f7f7" d="M6.497 4.502a2 2 0 1 0-4 0h4z" class="st10"></path>
  <path fill="#fff" d="M4.497 2.502a2 2 0 0 0-2 2h1.498c0-.84.517-1.555 1.25-1.852a1.981 1.981 0 0 0-.748-.148z"></path>
  <path fill="#f7f7f7" d="M26.419 25.502v-20a3 3 0 0 0-3-3h-19 .002a2 2 0 0 1 2 2h-.002v23a2 2 0 0 0 2 2h18v-4z" class="st0"></path>
  <path fill="#fff" d="M4.421 2.502a2 2 0 0 1 2 2h-.002v23a2 2 0 0 0 2 2h1.5a2 2 0 0 1-2-2v-23h.002a2 2 0 0 0-2-2h-1.5z"></path>
  <path fill="#f7f7f7" d="M29.5 27.624a2 2 0 0 1-2 2h-19a2 2 0 0 0 2-2v-1.997h19v1.997z" class="st0"></path>
  <path fill="#fff" d="M10.5 25.627v1.998a2 2 0 0 1-2 2h1.495a2 2 0 0 0 2-2v-1.998H10.5z"></path>
  <path fill="#444a54" d="M29.5 25.002h-2.502V5.499c0-1.93-1.57-3.5-3.5-3.5h-19c-.012 0-.021.01-.032.01A2.502 2.502 0 0 0 2 4.506a.5.5 0 0 0 .5.5h3.498v22.497c0 1.379 1.122 2.5 2.5 2.5H27.5a2.496 2.496 0 0 0 2.466-2.161.486.486 0 0 0 .034-.17v-2.166a.5.5 0 0 0-.5-.5zM25.998 5.499v19.503H10.5a.5.5 0 0 0-.5.5v1.997c0 .827-.673 1.5-1.5 1.5s-1.5-.673-1.5-1.5l-.002.988V4.514L7 4.502c0-.566-.196-1.083-.515-1.503h17.013c1.378 0 2.5 1.12 2.5 2.5zM3.085 4.002c.207-.582.763-1 1.415-1s1.208.418 1.415 1h-2.83zM27.5 28.999H10.487c.318-.42.513-.935.513-1.5v-1.497h18v1.497c0 .827-.673 1.5-1.5 1.5z" class="st21"></path>
  <path fill="none" stroke="#444a54" stroke-linecap="round" stroke-linejoin="round" stroke-miterlimit="10" d="M12.5 5.468h8M9.5 8.468h14M9.5 11.468h14M9.5 14.468h14M9.5 17.468h14M9.5 20.468h14" class="st29"></path>
</svg>
