<svg xmlns="http://www.w3.org/2000/svg" width="32" height="32" fill="none" viewBox="0 0 32 32" id="robot">
  <path fill="url(#paint0_radial_31_1501)" d="M22.05 30H9.95C6.66 30 4 27.34 4 24.05V12.03C4 8.7 6.7 6 10.03 6H21.98C25.3 6 28 8.7 28 12.03V24.06C28 27.34 25.34 30 22.05 30Z"></path>
  <path fill="url(#paint1_linear_31_1501)" d="M4 12C4 8.68629 6.68629 6 10 6H12V30H10C6.68629 30 4 27.3137 4 24V12Z"></path>
  <path fill="url(#paint2_linear_31_1501)" d="M4 24H28V24C28 27.3137 25.3137 30 22 30H10C6.68629 30 4 27.3137 4 24V24Z"></path>
  <path fill="url(#paint3_radial_31_1501)" d="M20 6H22C25.3137 6 28 8.68629 28 12V24C28 27.3137 25.3137 30 22 30H20V6Z"></path>
  <path stroke="url(#paint4_linear_31_1501)" stroke-miterlimit="10" d="M3.5 3.94995V13.05"></path>
  <path fill="url(#paint5_linear_31_1501)" d="M4 12V23C2.9 23 2 22.1008 2 21.0018V13.9982C2 12.8992 2.9 12 4 12Z"></path>
  <path fill="url(#paint6_linear_31_1501)" d="M22.7526 18.5H9.24738C6.9078 18.5 5 16.591 5 14.25C5 11.909 6.9078 10 9.24738 10H22.7526C25.0922 10 27 11.909 27 14.25C27 16.581 25.0822 18.5 22.7526 18.5Z"></path>
  <path fill="url(#paint7_linear_31_1501)" d="M18.5282 26H13.4718C12.6608 26 12 25.3265 12 24.5C12 23.6735 12.6608 23 13.4718 23H18.5282C19.3392 23 20 23.6735 20 24.5C20 25.3265 19.3392 26 18.5282 26Z"></path>
  <path fill="url(#paint8_radial_31_1501)" d="M3.5 5C4.32843 5 5 4.32843 5 3.5C5 2.67157 4.32843 2 3.5 2C2.67157 2 2 2.67157 2 3.5C2 4.32843 2.67157 5 3.5 5Z"></path>
  <path stroke="url(#paint9_linear_31_1501)" stroke-miterlimit="10" d="M28.5 4V13.09"></path>
  <path fill="url(#paint10_radial_31_1501)" d="M28.5 5.1C29.3561 5.1 30.05 4.40604 30.05 3.55C30.05 2.69396 29.3561 2 28.5 2C27.644 2 26.95 2.69396 26.95 3.55C26.95 4.40604 27.644 5.1 28.5 5.1Z"></path>
  <rect width="4.5" height="6" x="7" y="12" fill="url(#paint11_radial_31_1501)" rx="2"></rect>
  <rect width="4.5" height="6" x="18.5" y="12" fill="url(#paint12_radial_31_1501)" rx="2"></rect>
  <rect width="10" height="3" x="11" y="3" fill="url(#paint13_linear_31_1501)" rx="1.5"></rect>
  <rect width="10" height="3" x="11" y="3" fill="url(#paint14_radial_31_1501)" rx="1.5"></rect>
  <path fill="url(#paint15_linear_31_1501)" d="M28 22.9401V11.9301C29.1 11.9301 30 12.8301 30 13.9301V20.9401C30 22.0401 29.1 22.9401 28 22.9401Z"></path>
  <rect width="2.5" height="5" x="9" y="12" fill="url(#paint16_linear_31_1501)" rx="1.25"></rect>
  <rect width="2.5" height="5" x="9" y="12" fill="url(#paint17_radial_31_1501)" rx="1.25"></rect>
  <rect width="2.5" height="5" x="20.5" y="12" fill="url(#paint18_linear_31_1501)" rx="1.25"></rect>
  <rect width="2.5" height="5" x="20.5" y="12" fill="url(#paint19_radial_31_1501)" rx="1.25"></rect>
  <g filter="url(#filter0_f_31_1501)">
    <line x1="3.625" x2="3.625" y1="5" y2="11" stroke="url(#paint20_linear_31_1501)" stroke-width=".25"></line>
  </g>
  <g filter="url(#filter1_f_31_1501)">
    <line x1="28.625" x2="28.625" y1="5" y2="11" stroke="url(#paint21_linear_31_1501)" stroke-width=".25"></line>
  </g>
  <ellipse cx="29" cy="13.5" fill="url(#paint22_radial_31_1501)" rx="1" ry="1.5"></ellipse>
  <ellipse cx="29" cy="16.5" fill="url(#paint23_radial_31_1501)" rx="1" ry="4.5"></ellipse>
  <path fill="url(#paint24_radial_31_1501)" fill-rule="evenodd" d="M19.7756 3.02527C20.3831 3.13809 20.8619 3.61694 20.9747 4.22437C20.8729 4.66862 20.4751 5 20 5C19.4477 5 19 4.55228 19 4C19 3.52486 19.3314 3.12711 19.7756 3.02527Z" clip-rule="evenodd"></path>
  <defs>
    <linearGradient id="paint1_linear_31_1501" x1="12" x2="4" y1="18" y2="18" gradientUnits="userSpaceOnUse">
      <stop stop-color="#D5B2C0" stop-opacity="0"></stop>
      <stop offset="1" stop-color="#B4878D"></stop>
    </linearGradient>
    <linearGradient id="paint2_linear_31_1501" x1="16" x2="16" y1="27" y2="31" gradientUnits="userSpaceOnUse">
      <stop stop-color="#B17EDB" stop-opacity="0"></stop>
      <stop offset="1" stop-color="#A56BD6"></stop>
    </linearGradient>
    <linearGradient id="paint4_linear_31_1501" x1="4" x2="4" y1="3.95" y2="13.05" gradientUnits="userSpaceOnUse">
      <stop stop-color="#EA248A"></stop>
      <stop offset="1" stop-color="#DF2232"></stop>
    </linearGradient>
    <linearGradient id="paint5_linear_31_1501" x1="3" x2="3" y1="12" y2="23" gradientUnits="userSpaceOnUse">
      <stop stop-color="#E93273"></stop>
      <stop offset="1" stop-color="#D21844"></stop>
    </linearGradient>
    <linearGradient id="paint6_linear_31_1501" x1="15.998" x2="15.998" y1="17.701" y2="11.391" gradientUnits="userSpaceOnUse">
      <stop offset=".006" stop-color="#443E75"></stop>
      <stop offset="1" stop-color="#2F1A3B"></stop>
    </linearGradient>
    <linearGradient id="paint7_linear_31_1501" x1="15.998" x2="15.998" y1="25.686" y2="22.889" gradientUnits="userSpaceOnUse">
      <stop offset=".006" stop-color="#39325E"></stop>
      <stop offset="1" stop-color="#2B1831"></stop>
    </linearGradient>
    <linearGradient id="paint9_linear_31_1501" x1="29" x2="29" y1="4" y2="13.09" gradientUnits="userSpaceOnUse">
      <stop stop-color="#EA248A"></stop>
      <stop offset="1" stop-color="#DF2232"></stop>
    </linearGradient>
    <linearGradient id="paint13_linear_31_1501" x1="16" x2="14.5" y1="3" y2="6.5" gradientUnits="userSpaceOnUse">
      <stop stop-color="#FFCE2B"></stop>
      <stop offset="1" stop-color="#D9862D"></stop>
    </linearGradient>
    <linearGradient id="paint15_linear_31_1501" x1="29" x2="29" y1="11.93" y2="22.94" gradientUnits="userSpaceOnUse">
      <stop stop-color="#FF30AA"></stop>
      <stop offset="1" stop-color="#FF2353"></stop>
    </linearGradient>
    <linearGradient id="paint16_linear_31_1501" x1="11.5" x2="9" y1="14" y2="14" gradientUnits="userSpaceOnUse">
      <stop stop-color="#29B6FE"></stop>
      <stop offset="1" stop-color="#1769A8"></stop>
    </linearGradient>
    <linearGradient id="paint18_linear_31_1501" x1="23" x2="20.5" y1="14" y2="14" gradientUnits="userSpaceOnUse">
      <stop stop-color="#29B6FE"></stop>
      <stop offset="1" stop-color="#1769A8"></stop>
    </linearGradient>
    <linearGradient id="paint20_linear_31_1501" x1="3.5" x2="3.5" y1="7" y2="9" gradientUnits="userSpaceOnUse">
      <stop stop-color="#FF96CB"></stop>
      <stop offset="1" stop-color="#FF6DB7" stop-opacity="0"></stop>
    </linearGradient>
    <linearGradient id="paint21_linear_31_1501" x1="28.5" x2="28.5" y1="7" y2="9" gradientUnits="userSpaceOnUse">
      <stop stop-color="#FF96CB"></stop>
      <stop offset="1" stop-color="#FF6DB7" stop-opacity="0"></stop>
    </linearGradient>
    <radialGradient id="paint0_radial_31_1501" cx="0" cy="0" r="1" gradientTransform="rotate(141.911 10.515 10.065)scale(23.5053)" gradientUnits="userSpaceOnUse">
      <stop stop-color="#EEEBF0"></stop>
      <stop offset=".493" stop-color="#D1BEE3"></stop>
      <stop offset="1" stop-color="#D0BCE2"></stop>
    </radialGradient>
    <radialGradient id="paint3_radial_31_1501" cx="0" cy="0" r="1" gradientTransform="matrix(5 -.5 1.9111 19.11108 25 13.5)" gradientUnits="userSpaceOnUse">
      <stop stop-color="#F0EAF6"></stop>
      <stop offset="1" stop-color="#E7E0EF" stop-opacity="0"></stop>
    </radialGradient>
    <radialGradient id="paint8_radial_31_1501" cx="0" cy="0" r="1" gradientTransform="matrix(-.5 2 -2 -.5 4 3)" gradientUnits="userSpaceOnUse">
      <stop stop-color="#FF6C82"></stop>
      <stop offset=".441" stop-color="#FF2455"></stop>
      <stop offset="1" stop-color="#D9206C"></stop>
    </radialGradient>
    <radialGradient id="paint10_radial_31_1501" cx="0" cy="0" r="1" gradientTransform="rotate(104.036 13.324 12.844)scale(2.13027)" gradientUnits="userSpaceOnUse">
      <stop stop-color="#FF6C82"></stop>
      <stop offset=".441" stop-color="#FF2455"></stop>
      <stop offset="1" stop-color="#D9206C"></stop>
    </radialGradient>
    <radialGradient id="paint11_radial_31_1501" cx="0" cy="0" r="1" gradientTransform="matrix(-2.5 .5 -.68428 -3.42136 9.5 15)" gradientUnits="userSpaceOnUse">
      <stop stop-color="#322649"></stop>
      <stop offset="1" stop-color="#342950" stop-opacity="0"></stop>
    </radialGradient>
    <radialGradient id="paint12_radial_31_1501" cx="0" cy="0" r="1" gradientTransform="matrix(-2.5 .5 -.68428 -3.42136 21 15)" gradientUnits="userSpaceOnUse">
      <stop stop-color="#322649"></stop>
      <stop offset="1" stop-color="#342950" stop-opacity="0"></stop>
    </radialGradient>
    <radialGradient id="paint14_radial_31_1501" cx="0" cy="0" r="1" gradientTransform="matrix(0 3 -10 0 16 4)" gradientUnits="userSpaceOnUse">
      <stop offset=".431" stop-color="#CA7E29" stop-opacity="0"></stop>
      <stop offset="1" stop-color="#673F13"></stop>
    </radialGradient>
    <radialGradient id="paint17_radial_31_1501" cx="0" cy="0" r="1" gradientTransform="matrix(0 2.5 -1.14393 0 11 13.5)" gradientUnits="userSpaceOnUse">
      <stop stop-color="#54C8FF"></stop>
      <stop offset="1" stop-color="#54C8FF" stop-opacity="0"></stop>
    </radialGradient>
    <radialGradient id="paint19_radial_31_1501" cx="0" cy="0" r="1" gradientTransform="matrix(0 2.5 -1.14393 0 22.5 13.5)" gradientUnits="userSpaceOnUse">
      <stop stop-color="#54C8FF"></stop>
      <stop offset="1" stop-color="#54C8FF" stop-opacity="0"></stop>
    </radialGradient>
    <radialGradient id="paint22_radial_31_1501" cx="0" cy="0" r="1" gradientTransform="matrix(0 1.5 -1 0 29 13.5)" gradientUnits="userSpaceOnUse">
      <stop stop-color="#FF72C1"></stop>
      <stop offset="1" stop-color="#FF6EBF" stop-opacity="0"></stop>
    </radialGradient>
    <radialGradient id="paint23_radial_31_1501" cx="0" cy="0" r="1" gradientTransform="matrix(0 4.5 -.55944 0 29 16.5)" gradientUnits="userSpaceOnUse">
      <stop stop-color="#FF4B9C"></stop>
      <stop offset="1" stop-color="#FF73C1" stop-opacity="0"></stop>
    </radialGradient>
    <radialGradient id="paint24_radial_31_1501" cx="0" cy="0" r="1" gradientTransform="rotate(90 8 12)" gradientUnits="userSpaceOnUse">
      <stop stop-color="#FFEA60"></stop>
      <stop offset="1" stop-color="#FFEF66" stop-opacity="0"></stop>
    </radialGradient>
    <filter id="filter0_f_31_1501" width="1.25" height="7" x="3" y="4.5" color-interpolation-filters="sRGB" filterUnits="userSpaceOnUse">
      <feFlood flood-opacity="0" result="BackgroundImageFix"></feFlood>
      <feBlend in="SourceGraphic" in2="BackgroundImageFix" result="shape"></feBlend>
      <feGaussianBlur result="effect1_foregroundBlur_31_1501" stdDeviation=".25"></feGaussianBlur>
    </filter>
    <filter id="filter1_f_31_1501" width="1.25" height="7" x="28" y="4.5" color-interpolation-filters="sRGB" filterUnits="userSpaceOnUse">
      <feFlood flood-opacity="0" result="BackgroundImageFix"></feFlood>
      <feBlend in="SourceGraphic" in2="BackgroundImageFix" result="shape"></feBlend>
      <feGaussianBlur result="effect1_foregroundBlur_31_1501" stdDeviation=".25"></feGaussianBlur>
    </filter>
  </defs>
</svg>
