<svg xmlns="http://www.w3.org/2000/svg" viewBox="0 0 32 32" id="scissor">
  <path fill="#2b2e63" d="M30.15,20.62A6.65,6.65,0,0,0,23.21,19a11,11,0,0,1-2.31.52c-1.07.11-1.65-.63-2.29-1.53l7.32-9.67A11.68,11.68,0,0,0,27.72.57a.49.49,0,0,0-.44-.4.51.51,0,0,0-.5.32,1.74,1.74,0,0,1-.26.35c-.08.08-.14.16-.2.23L24.94,2.89,20.57,8.57,16,14.51,11.64,8.84l-.21-.27Q9.24,5.74,7.07,2.89L6.54,2.2c-.29-.37-.57-.75-.86-1.13C5.62,1,5.56.92,5.48.84A2.21,2.21,0,0,1,5.21.49.47.47,0,0,0,4.72.17a.49.49,0,0,0-.44.4A11.65,11.65,0,0,0,6.1,8.31L8.17,11l2.13,2.81c.74,1,1.47,2,2.21,2.93l.88,1.16c-.64.89-1.22,1.64-2.29,1.53A10.46,10.46,0,0,1,8.8,19a6.68,6.68,0,0,0-2.17-.37,6.55,6.55,0,0,0-4.77,2A6.61,6.61,0,0,0,6.34,31.82h.28a6.64,6.64,0,0,0,6.52-5.45,8.68,8.68,0,0,1,2-3.91L16,21.39l.82,1.08a8.68,8.68,0,0,1,2,3.91,6.65,6.65,0,0,0,6.53,5.45h.27A6.65,6.65,0,0,0,32,25.46,6.57,6.57,0,0,0,30.15,20.62ZM16.52,15.43l4.82-6.27,4.37-5.68c.37-.49.75-1,1.12-1.48a11.26,11.26,0,0,1-1.7,5.72l-7.5,9.9a2.2,2.2,0,0,0-1.07-1.07,3.06,3.06,0,0,0-.74-.21Zm-3.23.76-2.22-2.92L8.94,10.46c-.69-.91-1.37-1.83-2-2.7A11.35,11.35,0,0,1,5.17,2l.6.79.53.69q2.17,2.85,4.36,5.68l.21.27,4.52,5.88-.9,1.16-.5.65Zm1.12,5.69a9.53,9.53,0,0,0-2.22,4.33,5.66,5.66,0,1,1-5.56-6.66,5.79,5.79,0,0,1,1.85.31,11.31,11.31,0,0,0,2.52.57c1.68.18,2.56-1.06,3.27-2.05.13-.19.26-.37.4-.55l.44-.58a2.38,2.38,0,0,1,1,.18,1.36,1.36,0,0,1,.76,1.14Zm11.21,9a5.67,5.67,0,0,1-5.81-4.64,9.43,9.43,0,0,0-2.22-4.33l-1-1.3L17.8,19a0,0,0,0,0,0,0l.19-.24a3.18,3.18,0,0,0,3,1.68,11.11,11.11,0,0,0,2.51-.57,5.8,5.8,0,0,1,1.86-.3A5.65,5.65,0,0,1,31,25.42,5.67,5.67,0,0,1,25.62,30.85Z"></path>
  <path fill="#d7e9f2" d="M15.39 15.31l-.9 1.16-.5.65-.7-.93-2.22-2.92L8.94 10.46c-.69-.91-1.37-1.83-2-2.7A11.35 11.35 0 0 1 5.17 2l.6.79.53.69q2.17 2.85 4.36 5.68l.21.27zM26.83 2a11.26 11.26 0 0 1-1.7 5.72l-7.5 9.9a2.2 2.2 0 0 0-1.07-1.07 3.06 3.06 0 0 0-.74-.21l.7-.91 4.82-6.27 4.37-5.68C26.08 3 26.46 2.5 26.83 2z"></path>
  <path fill="#f26e61" d="M16.15 17.43a2.38 2.38 0 0 0-1-.18l-.44.58c-.14.18-.27.36-.4.55-.71 1-1.59 2.23-3.27 2.05a11.31 11.31 0 0 1-2.52-.57 5.79 5.79 0 0 0-1.85-.31 5.65 5.65 0 1 0 5.56 6.66 9.53 9.53 0 0 1 2.22-4.33l2.5-3.31A1.36 1.36 0 0 0 16.15 17.43zM6.62 29.89a4.59 4.59 0 1 1 4.6-4.59A4.59 4.59 0 0 1 6.62 29.89zM29.45 21.29a5.6 5.6 0 0 0-4.07-1.73 5.8 5.8 0 0 0-1.86.3 11.11 11.11 0 0 1-2.51.57 3.18 3.18 0 0 1-3-1.68l-.19.24a0 0 0 0 1 0 0l-1.19 1.57 1 1.3a9.43 9.43 0 0 1 2.22 4.33 5.66 5.66 0 1 0 9.64-4.92zm-4.07 8.6A4.59 4.59 0 1 1 30 25.3 4.59 4.59 0 0 1 25.38 29.89z"></path>
  <path fill="#b7dae7" d="M10.87 9.43l-.21-.27Q8.47 6.32 6.3 3.48l-.53-.69L5.17 2A11.35 11.35 0 0 0 6.9 7.76c.67.87 1.35 1.79 2 2.7l2.13 2.81 2.22 2.92.7.93.5-.65.9-1.16zm3.23 6.73L14 16.3l-.59-.79L11.47 13 8.7 9.3c-.47-.62-.93-1.23-1.39-1.82A11.06 11.06 0 0 1 5.85 3.72l.89 1.15q1.76 2.31 3.53 4.6l.78 1 3.71 4.82zM25.71 3.48L21.34 9.16l-4.82 6.27-.7.91a3.06 3.06 0 0 1 .74.21 2.2 2.2 0 0 1 1.07 1.07l7.5-9.9A11.26 11.26 0 0 0 26.83 2C26.46 2.5 26.08 3 25.71 3.48zm-1 4l-7 9.3a2.67 2.67 0 0 0-.89-.66l-.1 0 .24-.32 4.82-6.27q2.19-2.84 4.37-5.69l.06-.07A10.74 10.74 0 0 1 24.7 7.46z"></path>
  <path fill="#e15e5a" d="M16.15 17.43a2.38 2.38 0 0 0-1-.18l-.44.58c-.14.18-.27.36-.4.55-.71 1-1.59 2.23-3.27 2.05a11.31 11.31 0 0 1-2.52-.57 5.79 5.79 0 0 0-1.85-.31 5.65 5.65 0 1 0 5.56 6.66 9.53 9.53 0 0 1 2.22-4.33l2.5-3.31A1.36 1.36 0 0 0 16.15 17.43zM14 21.58a10 10 0 0 0-2.31 4.54 5.16 5.16 0 0 1-5.09 4.24H6.4a5.15 5.15 0 0 1-3.49-8.72 5.11 5.11 0 0 1 3.72-1.58 5.29 5.29 0 0 1 1.68.28 12.2 12.2 0 0 0 2.63.6l.37 0c1.74 0 2.68-1.32 3.37-2.28.13-.18.25-.36.38-.53l.3-.39a1.77 1.77 0 0 1 .57.13.81.81 0 0 1 .45.57zM29.45 21.29a5.6 5.6 0 0 0-4.07-1.73 5.8 5.8 0 0 0-1.86.3 11.11 11.11 0 0 1-2.51.57 3.18 3.18 0 0 1-3-1.68l-.19.24a0 0 0 0 1 0 0l-1.19 1.57 1 1.3a9.43 9.43 0 0 1 2.22 4.33 5.66 5.66 0 1 0 9.64-4.92zM25.6 30.35h-.21a5.16 5.16 0 0 1-5.09-4.24A9.91 9.91 0 0 0 18 21.59l-.75-1 .76-1A3.42 3.42 0 0 0 20.67 21l.39 0a11.23 11.23 0 0 0 2.63-.6 5.25 5.25 0 0 1 1.69-.27 5.16 5.16 0 0 1 5.15 5.34A5.17 5.17 0 0 1 25.6 30.35z"></path>
  <path fill="#2b2e63" d="M25.38 20.71A4.59 4.59 0 1 0 30 25.3 4.6 4.6 0 0 0 25.38 20.71zm0 8.21A3.62 3.62 0 1 1 29 25.3 3.63 3.63 0 0 1 25.38 28.92zM6.62 20.71a4.59 4.59 0 1 0 4.6 4.59A4.6 4.6 0 0 0 6.62 20.71zm0 8.21a3.62 3.62 0 1 1 3.63-3.62A3.62 3.62 0 0 1 6.62 28.92z"></path>
</svg>
